<?xml version="1.0" encoding="UTF-8"?>
<svg xmlns="http://www.w3.org/2000/svg" xmlns:xlink="http://www.w3.org/1999/xlink" width="592px" height="148px" viewBox="0 0 592 148" version="1.1">
<g id="surface1">
<path style=" stroke:none;fill-rule:nonzero;fill:rgb(16.078431%,67.058824%,88.627451%);fill-opacity:1;" d="M 85.859375 99.625 L 85.859375 78.90625 L 34.78125 47.625 L 34.78125 105.171875 L 85.859375 136.65625 L 85.96875 113.046875 L 52.265625 92.703125 L 52.46875 78.984375 Z M 85.859375 99.625 "/>
<path style=" stroke:none;fill-rule:nonzero;fill:rgb(0%,44.313725%,73.72549%);fill-opacity:1;" d="M 91.515625 136.75 L 91.515625 113.421875 L 122.046875 94.34375 L 122.046875 56.78125 L 91.515625 76.046875 L 37.46875 42.890625 L 88.71875 11.25 L 107.421875 23.109375 L 73.1875 44.40625 L 88.359375 53.828125 L 123.15625 32.53125 L 142.234375 44.578125 L 142.234375 105.46875 Z M 91.515625 136.75 "/>
<path style=" stroke:none;fill-rule:nonzero;fill:rgb(16.078431%,67.058824%,88.627451%);fill-opacity:1;" d="M 213 91.265625 C 208.671875 93.046875 204.03125 93.890625 199.359375 93.734375 C 187.59375 93.734375 176.34375 86.5625 176.34375 71.359375 C 176.34375 59.984375 184.75 48.625 201.015625 48.625 C 205.03125 48.453125 209.046875 49.203125 212.75 50.8125 L 211.734375 53.453125 C 208.421875 51.953125 204.8125 51.203125 201.1875 51.25 C 187.015625 51.25 179.53125 59.859375 179.53125 71.625 C 179.53125 82.359375 186.703125 91.015625 200.421875 91.015625 C 204.4375 91.171875 208.453125 90.421875 212.140625 88.796875 Z M 213 91.265625 "/>
<path style=" stroke:none;fill-rule:nonzero;fill:rgb(16.078431%,67.058824%,88.627451%);fill-opacity:1;" d="M 220.9375 71.953125 C 220.9375 68.59375 220.9375 65.296875 220.6875 61.9375 L 223.609375 61.9375 L 223.609375 68.671875 L 223.796875 68.671875 C 225.015625 64.40625 228.859375 61.40625 233.296875 61.265625 C 233.8125 61.265625 234.3125 61.328125 234.796875 61.46875 L 234.796875 64.375 C 234.25 64.234375 233.671875 64.140625 233.09375 64.140625 C 228.78125 64.140625 225.484375 67.765625 224.4375 73.140625 C 224.234375 74.140625 224.125 75.15625 224.125 76.171875 L 224.125 92.96875 L 220.96875 92.96875 L 220.96875 71.953125 Z M 220.9375 71.953125 "/>
<path style=" stroke:none;fill-rule:nonzero;fill:rgb(16.078431%,67.058824%,88.627451%);fill-opacity:1;" d="M 246.46875 52.765625 C 246.46875 54.203125 245.296875 55.375 243.859375 55.375 C 242.40625 55.375 241.234375 54.203125 241.234375 52.765625 C 241.234375 51.265625 242.40625 50.046875 243.90625 49.96875 C 245.375 50.046875 246.53125 51.28125 246.46875 52.765625 Z M 242.28125 92.96875 L 242.28125 61.9375 L 245.453125 61.9375 L 245.453125 92.96875 Z M 242.28125 92.96875 "/>
<path style=" stroke:none;fill-rule:nonzero;fill:rgb(16.078431%,67.058824%,88.627451%);fill-opacity:1;" d="M 256.828125 71.953125 C 256.828125 68.59375 256.828125 65.296875 256.5625 61.9375 L 259.59375 61.9375 L 259.859375 68.40625 L 259.984375 68.40625 C 262.59375 63.703125 267.65625 60.890625 273.03125 61.171875 C 277.140625 61.125 281.078125 62.78125 283.90625 65.75 C 286.734375 68.703125 288.21875 72.71875 287.984375 76.8125 C 287.984375 87.671875 280.734375 93.734375 272.265625 93.734375 C 267.375 93.9375 262.75 91.53125 260.109375 87.421875 L 260.109375 105.890625 L 256.953125 105.890625 Z M 259.984375 80.484375 C 259.984375 81.3125 260.09375 82.15625 260.3125 82.953125 C 261.984375 87.984375 266.71875 91.34375 272.03125 91.265625 C 279.890625 91.265625 284.828125 85.71875 284.828125 77.03125 C 285.0625 73.625 283.859375 70.265625 281.53125 67.765625 C 279.1875 65.265625 275.921875 63.859375 272.5 63.859375 C 267.09375 63.734375 262.25 67.21875 260.671875 72.390625 C 260.359375 73.265625 260.15625 74.1875 260.078125 75.109375 Z M 259.984375 80.484375 "/>
<path style=" stroke:none;fill-rule:nonzero;fill:rgb(16.078431%,67.058824%,88.627451%);fill-opacity:1;" d="M 300.9375 52.71875 L 300.9375 61.9375 L 310.796875 61.9375 L 310.796875 64.40625 L 300.9375 64.40625 L 300.9375 84.140625 C 300.9375 87.96875 302.09375 90.875 305.859375 90.875 C 307.25 90.90625 308.625 90.703125 309.9375 90.28125 L 310.328125 92.75 C 308.796875 93.328125 307.1875 93.609375 305.546875 93.578125 C 303.359375 93.71875 301.25 92.859375 299.78125 91.234375 C 298.265625 89.078125 297.546875 86.46875 297.734375 83.84375 L 297.734375 64.484375 L 292.046875 64.484375 L 292.046875 62.015625 L 297.75 62.015625 L 297.75 53.671875 Z M 300.9375 52.71875 "/>
<path style=" stroke:none;fill-rule:nonzero;fill:rgb(16.078431%,67.058824%,88.627451%);fill-opacity:1;" d="M 347.796875 77.078125 C 347.953125 81.546875 346.234375 85.890625 343.078125 89.046875 C 339.90625 92.203125 335.5625 93.90625 331.09375 93.734375 C 326.828125 93.859375 322.6875 92.21875 319.65625 89.1875 C 316.640625 86.171875 315 82.03125 315.140625 77.75 C 314.984375 73.328125 316.65625 69.046875 319.765625 65.90625 C 322.859375 62.765625 327.125 61.046875 331.546875 61.15625 C 335.875 60.90625 340.09375 62.5 343.1875 65.53125 C 346.28125 68.5625 347.953125 72.75 347.796875 77.078125 Z M 318.203125 77.578125 C 317.96875 81.171875 319.25 84.703125 321.734375 87.296875 C 324.234375 89.90625 327.703125 91.34375 331.296875 91.265625 C 334.953125 91.3125 338.453125 89.84375 340.96875 87.203125 C 343.5 84.5625 344.8125 81 344.59375 77.359375 C 344.734375 73.8125 343.421875 70.359375 340.953125 67.8125 C 338.484375 65.265625 335.09375 63.84375 331.546875 63.859375 C 322.765625 63.765625 318.203125 70.34375 318.203125 77.578125 Z M 318.203125 77.578125 "/>
<path style=" stroke:none;fill-rule:nonzero;fill:rgb(0%,44.313725%,73.72549%);fill-opacity:1;" d="M 370.265625 87.859375 C 373.46875 90 377.234375 91.125 381.078125 91.09375 C 388.109375 91.09375 392.375 87.34375 392.375 81.984375 C 392.375 76.640625 389.90625 74.140625 382.5 71.828125 C 373.78125 69.046875 370.171875 65.484375 370.171875 59.8125 C 370.171875 53.40625 375.671875 48.625 383.6875 48.625 C 387.0625 48.484375 390.40625 49.234375 393.390625 50.8125 L 392.15625 53.484375 C 389.546875 51.921875 386.5625 51.140625 383.546875 51.203125 C 375.71875 51.203125 373.25 55.9375 373.25 59.34375 C 373.25 64.015625 376.046875 66.75 383.125 68.921875 C 391.0625 71.390625 395.453125 74.609375 395.453125 81.640625 C 395.453125 87.671875 391.0625 93.765625 380.65625 93.765625 C 376.546875 93.796875 372.515625 92.671875 369.015625 90.53125 Z M 370.265625 87.859375 "/>
<path style=" stroke:none;fill-rule:nonzero;fill:rgb(0%,44.313725%,73.72549%);fill-opacity:1;" d="M 408.609375 52.765625 C 408.625 53.5 408.34375 54.203125 407.828125 54.734375 C 407.328125 55.25 406.625 55.546875 405.890625 55.546875 C 404.453125 55.4375 403.359375 54.203125 403.421875 52.765625 C 403.40625 51.28125 404.578125 50.046875 406.0625 49.96875 C 407.53125 50.046875 408.65625 51.296875 408.609375 52.765625 Z M 404.53125 92.96875 L 404.53125 61.9375 L 407.6875 61.9375 L 407.6875 92.96875 Z M 404.53125 92.96875 "/>
<path style=" stroke:none;fill-rule:nonzero;fill:rgb(0%,44.313725%,73.72549%);fill-opacity:1;" d="M 418.9375 69.4375 C 418.9375 66.96875 418.9375 64.5 418.6875 62.03125 L 421.65625 62.03125 L 421.921875 68.0625 C 424.015625 63.8125 428.375 61.15625 433.09375 61.265625 C 437.65625 61.3125 441.640625 64.3125 442.96875 68.671875 C 443.8125 66.9375 445 65.390625 446.46875 64.140625 C 448.78125 62.03125 451.828125 60.953125 454.953125 61.09375 C 457.859375 61.09375 466.078125 62.65625 466.078125 75.578125 L 466.078125 92.84375 L 462.890625 92.84375 L 462.890625 75.578125 C 462.890625 67.765625 459.546875 63.765625 453.84375 63.765625 C 449.859375 63.90625 446.328125 66.34375 444.796875 70.03125 C 444.390625 70.984375 444.171875 72.015625 444.140625 73.0625 L 444.140625 92.796875 L 440.984375 92.796875 L 440.984375 74 C 440.984375 67.90625 437.6875 63.78125 432.453125 63.78125 C 428.09375 64.046875 424.3125 66.875 422.8125 70.96875 C 422.4375 71.9375 422.25 72.96875 422.25 74 L 422.25 92.875 L 419.0625 92.875 L 419.0625 69.4375 Z M 418.9375 69.4375 "/>
<path style=" stroke:none;fill-rule:nonzero;fill:rgb(0%,44.313725%,73.72549%);fill-opacity:1;" d="M 476.9375 71.953125 C 476.9375 68.59375 476.9375 65.296875 476.6875 61.9375 L 479.71875 61.9375 L 479.96875 68.40625 L 480.109375 68.40625 C 482.71875 63.6875 487.78125 60.890625 493.15625 61.171875 C 497.234375 61.171875 501.140625 62.84375 503.9375 65.796875 C 506.734375 68.765625 508.1875 72.75 507.953125 76.8125 C 507.953125 87.671875 500.734375 93.734375 492.265625 93.734375 C 487.390625 93.9375 482.75 91.53125 480.109375 87.421875 L 479.984375 87.421875 L 479.984375 105.890625 L 476.8125 105.890625 Z M 480.09375 80.484375 C 480.09375 81.328125 480.21875 82.15625 480.4375 82.953125 C 482.09375 87.984375 486.828125 91.34375 492.125 91.265625 C 500.015625 91.265625 504.921875 85.71875 504.921875 77.03125 C 505.15625 73.625 503.96875 70.265625 501.625 67.765625 C 499.28125 65.265625 496.015625 63.859375 492.59375 63.859375 C 487.1875 63.75 482.34375 67.21875 480.75 72.390625 C 480.4375 73.265625 480.234375 74.1875 480.15625 75.109375 Z M 480.09375 80.484375 "/>
<path style=" stroke:none;fill-rule:nonzero;fill:rgb(0%,44.313725%,73.72549%);fill-opacity:1;" d="M 516.5625 46.6875 L 519.734375 46.6875 L 519.734375 92.96875 L 516.5625 92.96875 Z M 516.5625 46.6875 "/>
<path style=" stroke:none;fill-rule:nonzero;fill:rgb(0%,44.313725%,73.72549%);fill-opacity:1;" d="M 531.296875 77.453125 C 531.296875 86.5 537.046875 91.046875 544.421875 91.046875 C 547.8125 91.1875 551.203125 90.515625 554.28125 89.09375 L 555.125 91.5625 C 551.625 93.125 547.828125 93.859375 544 93.703125 C 539.765625 93.984375 535.625 92.4375 532.59375 89.484375 C 529.5625 86.53125 527.921875 82.421875 528.09375 78.1875 C 528.09375 67.65625 534.828125 61.125 543.609375 61.125 C 555.125 61.125 557.125 71.34375 557.125 75.484375 C 557.15625 76.125 557.109375 76.765625 557 77.40625 Z M 553.921875 74.984375 C 553.921875 71.75 552.625 63.8125 543.328125 63.8125 C 537.078125 63.890625 531.921875 68.75 531.5 74.984375 Z M 553.921875 74.984375 "/>
</g>
</svg>
