<?xml version="1.0" encoding="utf-8"?>
<!-- Generator: Adobe Illustrator 24.0.2, SVG Export Plug-In . SVG Version: 6.00 Build 0)  -->
<svg version="1.1" id="Capa_1" xmlns="http://www.w3.org/2000/svg" xmlns:xlink="http://www.w3.org/1999/xlink" x="0px" y="0px"
	 viewBox="0 0 1200 300" style="enable-background:new 0 0 1200 300;" xml:space="preserve">
<style type="text/css">
	.st0{fill:#29ABE2;}
	.st1{fill:#0071BC;}
	.st2{fill:#2A323D;}
</style>
<g>
	<g>
		<polygon class="st0" points="193.61,199.58 193.61,159.49 94.81,98.99 94.81,210.31 193.61,271.17 193.79,225.53 128.64,186.15 
			129,159.66 		"/>
		<polygon class="st1" points="204.52,271.34 204.52,226.24 263.59,189.37 263.59,116.71 204.52,153.94 100,89.86 199.16,28.66 
			235.31,51.56 169.09,92.73 198.44,110.98 265.73,69.82 302.6,93.09 302.6,210.85 		"/>
	</g>
	<g>
		<path class="st0" d="M439.47,183.32c-4.75,2.38-14.25,4.88-26.38,4.88c-22.75,0-44.51-13.88-44.51-43.25
			c0-22,16.25-44.01,47.88-44.01c12.75,0,19.88,2.88,22.75,4.25l-2,5.13c-5-2.5-12.5-4.25-20.38-4.25
			c-27.38,0-41.88,16.63-41.88,39.38c0,20.75,13.88,37.5,40.38,37.5c8.25,0,16.5-1.63,22.25-4.5L439.47,183.32z"/>
		<path class="st0" d="M454.85,146.06c0-6.5-0.13-12.88-0.5-19.38h5.63l0.25,13h0.38c3-8.38,9.5-14.5,18.38-14.5
			c1,0,2,0.13,2.88,0.38v5.63c-1.13-0.25-2.13-0.25-3.5-0.25c-8.38,0-14.75,7-16.75,17.38c-0.38,1.75-0.63,3.88-0.63,5.88v32.5
			h-6.13V146.06z"/>
		<path class="st0" d="M504.23,108.93c0,2.75-2,5.38-5.25,5.38c-2.88,0-4.88-2.63-4.88-5.38c0-2.75,2.25-5.38,5.13-5.38
			C502.1,103.56,504.23,106.06,504.23,108.93z M496.1,186.69v-60.01h6.13v60.01H496.1z"/>
		<path class="st0" d="M524.23,146.06c0-6.5-0.13-12.88-0.5-19.38h5.88l0.5,12.5h0.25c4.5-8.13,12.75-14,25.25-14
			c17.63,0,28.88,14,28.88,30.25c0,21-14,32.75-30.38,32.75c-9.38,0-18.5-3.88-23.5-12.25h-0.25v35.75h-6.13V146.06z M530.36,162.57
			c0,1.63,0.25,3.25,0.63,4.75c2.5,8.5,11.38,15.88,22.63,15.88c15.25,0,24.75-10.75,24.75-27.5c0-13.63-9-25.5-24-25.5
			c-9.88,0-19.5,5.63-22.88,16.5c-0.5,1.63-1.13,3.63-1.13,5.25V162.57z"/>
		<path class="st0" d="M609.49,108.81v17.88h19v4.88h-19v38.38c0,7.38,2.25,13,9.63,13c3.63,0,6.13-0.5,7.88-1.13l0.75,4.75
			c-2.13,0.88-5.25,1.63-9.25,1.63c-4.75,0-8.63-1.5-11.13-4.5c-3-3.38-4-8.88-4-14.5v-37.63h-11v-4.88h11v-16L609.49,108.81z"/>
		<path class="st0" d="M700.13,155.94c0,22.5-17.5,32.25-32.25,32.25c-17.88,0-30.88-13.13-30.88-30.88c0-20,15-32.13,31.75-32.13
			C688.01,125.19,700.13,138.81,700.13,155.94z M643.12,156.94c0,16.75,12.13,26.25,25.13,26.25c13.25,0,25.75-9.63,25.75-26.88
			c0-11.38-7.63-26.13-25.25-26.13C651.75,130.19,643.12,142.94,643.12,156.94z"/>
		<path class="st1" d="M743.64,176.82c5.5,3.75,12.75,6.25,20.88,6.25c13.63,0,21.88-7.25,21.88-17.63c0-9.63-4.88-15.13-19-19.63
			c-16.88-5.38-23.63-12.25-23.63-23.25c0-12.38,10.63-21.63,26.13-21.63c8.88,0,15.5,2.13,18.75,4.25l-2.38,5.13
			c-2.38-1.63-8.38-4.38-16.63-4.38c-15.13,0-19.88,9.13-19.88,15.75c0,9,5.38,14.13,19,18.5c15.38,5,23.63,11,23.63,24.63
			c0,11.63-8.5,23.38-28.63,23.38c-8,0-17.38-2.5-22.5-6.25L743.64,176.82z"/>
		<path class="st1" d="M817.77,108.93c0,2.75-2,5.38-5.25,5.38c-2.88,0-4.88-2.63-4.88-5.38c0-2.75,2.25-5.38,5.13-5.38
			C815.65,103.56,817.77,106.06,817.77,108.93z M809.65,186.69v-60.01h6.13v60.01H809.65z"/>
		<path class="st1" d="M837.77,141.19c0-4.88-0.13-9.63-0.5-14.5h5.75l0.5,11.63h0.25c4.38-7.5,10.63-13.13,21.63-13.13
			c9.5,0,16.25,6.63,18.88,14.25h0.25c1.75-3.63,4-6.38,6.25-8.38c4.38-3.75,8.88-5.88,16.38-5.88c5.63,0,21.5,3,21.5,28v33.5h-6.13
			v-33.38c0-15.13-6.5-22.88-17.5-22.88c-8.38,0-14.88,6-17.5,12.13c-0.63,1.63-1.25,3.63-1.25,5.88v38.25h-6.13v-36.5
			c0-11.75-6.38-19.75-16.5-19.75c-9.13,0-16,7.25-18.63,13.88c-0.63,1.63-1.13,3.75-1.13,5.88v36.5h-6.13V141.19z"/>
		<path class="st1" d="M949.92,146.06c0-6.5-0.13-12.88-0.5-19.38h5.88l0.5,12.5h0.25c4.5-8.13,12.75-14,25.25-14
			c17.63,0,28.88,14,28.88,30.25c0,21-14,32.75-30.38,32.75c-9.38,0-18.5-3.88-23.5-12.25h-0.25v35.75h-6.13V146.06z M956.04,162.57
			c0,1.63,0.25,3.25,0.63,4.75c2.5,8.5,11.38,15.88,22.63,15.88c15.25,0,24.75-10.75,24.75-27.5c0-13.63-9-25.5-24-25.5
			c-9.88,0-19.5,5.63-22.88,16.5c-0.5,1.63-1.13,3.63-1.13,5.25V162.57z"/>
		<path class="st1" d="M1026.55,97.18h6.13v89.51h-6.13V97.18z"/>
		<path class="st1" d="M1055.05,156.69c0,17.5,11.13,26.25,25.38,26.25c10.38,0,15.38-2,19.25-3.75l1.63,4.88
			c-2.13,1-8.88,4.13-21.5,4.13c-18.63,0-30.75-12.63-30.75-30c0-20.38,13-33,30-33c22.25,0,26.13,19.75,26.13,27.75
			c0,1.88,0,2.75-0.25,3.75H1055.05z M1098.81,151.81c0.13-6.25-2.5-21.63-20.5-21.63c-15.25,0-21.63,12.5-22.88,21.63H1098.81z"/>
	</g>
</g>
</svg>
